<mxfile host="Electron" agent="Mozilla/5.0 (Windows NT 10.0; Win64; x64) AppleWebKit/537.36 (KHTML, like Gecko) draw.io/24.7.17 Chrome/128.0.6613.36 Electron/32.0.1 Safari/537.36" version="24.7.17">
  <diagram name="Page-1" id="2YBvvXClWsGukQMizWep">
    <mxGraphModel dx="864" dy="508" grid="1" gridSize="10" guides="1" tooltips="1" connect="1" arrows="1" fold="1" page="1" pageScale="1" pageWidth="850" pageHeight="1100" math="0" shadow="0">
      <root>
        <mxCell id="0" />
        <mxCell id="1" parent="0" />
        <mxCell id="7U5aSdqG4vJostI92yb3-21" value="Cliente" style="shape=umlLifeline;perimeter=lifelinePerimeter;whiteSpace=wrap;html=1;container=0;dropTarget=0;collapsible=0;recursiveResize=0;outlineConnect=0;portConstraint=eastwest;newEdgeStyle={&quot;edgeStyle&quot;:&quot;elbowEdgeStyle&quot;,&quot;elbow&quot;:&quot;vertical&quot;,&quot;curved&quot;:0,&quot;rounded&quot;:0};" vertex="1" parent="1">
          <mxGeometry x="50" y="50" width="100" height="300" as="geometry" />
        </mxCell>
        <mxCell id="7U5aSdqG4vJostI92yb3-22" value="" style="html=1;points=[];perimeter=orthogonalPerimeter;outlineConnect=0;targetShapes=umlLifeline;portConstraint=eastwest;newEdgeStyle={&quot;edgeStyle&quot;:&quot;elbowEdgeStyle&quot;,&quot;elbow&quot;:&quot;vertical&quot;,&quot;curved&quot;:0,&quot;rounded&quot;:0};" vertex="1" parent="7U5aSdqG4vJostI92yb3-21">
          <mxGeometry x="45" y="70" width="10" height="190" as="geometry" />
        </mxCell>
        <mxCell id="7U5aSdqG4vJostI92yb3-23" value="dispatch" style="html=1;verticalAlign=bottom;startArrow=oval;endArrow=block;startSize=8;edgeStyle=elbowEdgeStyle;elbow=vertical;curved=0;rounded=0;" edge="1" parent="7U5aSdqG4vJostI92yb3-21" target="7U5aSdqG4vJostI92yb3-22">
          <mxGeometry relative="1" as="geometry">
            <mxPoint x="-15" y="70" as="sourcePoint" />
          </mxGeometry>
        </mxCell>
        <mxCell id="7U5aSdqG4vJostI92yb3-24" value="" style="html=1;points=[];perimeter=orthogonalPerimeter;outlineConnect=0;targetShapes=umlLifeline;portConstraint=eastwest;newEdgeStyle={&quot;edgeStyle&quot;:&quot;elbowEdgeStyle&quot;,&quot;elbow&quot;:&quot;vertical&quot;,&quot;curved&quot;:0,&quot;rounded&quot;:0};" vertex="1" parent="7U5aSdqG4vJostI92yb3-21">
          <mxGeometry x="50" y="120" width="10" height="80" as="geometry" />
        </mxCell>
        <mxCell id="7U5aSdqG4vJostI92yb3-25" value="Microservicio de clientes" style="shape=umlLifeline;perimeter=lifelinePerimeter;whiteSpace=wrap;html=1;container=0;dropTarget=0;collapsible=0;recursiveResize=0;outlineConnect=0;portConstraint=eastwest;newEdgeStyle={&quot;edgeStyle&quot;:&quot;elbowEdgeStyle&quot;,&quot;elbow&quot;:&quot;vertical&quot;,&quot;curved&quot;:0,&quot;rounded&quot;:0};" vertex="1" parent="1">
          <mxGeometry x="230" y="50" width="100" height="300" as="geometry" />
        </mxCell>
        <mxCell id="7U5aSdqG4vJostI92yb3-26" value="" style="html=1;points=[];perimeter=orthogonalPerimeter;outlineConnect=0;targetShapes=umlLifeline;portConstraint=eastwest;newEdgeStyle={&quot;edgeStyle&quot;:&quot;elbowEdgeStyle&quot;,&quot;elbow&quot;:&quot;vertical&quot;,&quot;curved&quot;:0,&quot;rounded&quot;:0};" vertex="1" parent="7U5aSdqG4vJostI92yb3-25">
          <mxGeometry x="45" y="80" width="10" height="170" as="geometry" />
        </mxCell>
        <mxCell id="7U5aSdqG4vJostI92yb3-27" value="GET / clientes / {id}" style="html=1;verticalAlign=bottom;endArrow=block;edgeStyle=elbowEdgeStyle;elbow=vertical;curved=0;rounded=0;dashed=1;" edge="1" parent="1" source="7U5aSdqG4vJostI92yb3-22" target="7U5aSdqG4vJostI92yb3-26">
          <mxGeometry relative="1" as="geometry">
            <mxPoint x="205" y="140" as="sourcePoint" />
            <Array as="points">
              <mxPoint x="190" y="130" />
            </Array>
          </mxGeometry>
        </mxCell>
        <mxCell id="7U5aSdqG4vJostI92yb3-28" value="Respuesta con saldos" style="html=1;verticalAlign=bottom;endArrow=classic;dashed=1;endSize=8;edgeStyle=elbowEdgeStyle;elbow=vertical;curved=0;rounded=0;startArrow=baseDash;startFill=0;endFill=1;" edge="1" parent="1">
          <mxGeometry relative="1" as="geometry">
            <mxPoint x="105" y="295" as="targetPoint" />
            <Array as="points">
              <mxPoint x="200" y="295" />
            </Array>
            <mxPoint x="275" y="295" as="sourcePoint" />
          </mxGeometry>
        </mxCell>
        <mxCell id="7U5aSdqG4vJostI92yb3-29" value="Microservicio de cuentas bancarias" style="shape=umlLifeline;perimeter=lifelinePerimeter;whiteSpace=wrap;html=1;container=0;dropTarget=0;collapsible=0;recursiveResize=0;outlineConnect=0;portConstraint=eastwest;newEdgeStyle={&quot;edgeStyle&quot;:&quot;elbowEdgeStyle&quot;,&quot;elbow&quot;:&quot;vertical&quot;,&quot;curved&quot;:0,&quot;rounded&quot;:0};" vertex="1" parent="1">
          <mxGeometry x="410" y="50" width="100" height="300" as="geometry" />
        </mxCell>
        <mxCell id="7U5aSdqG4vJostI92yb3-30" value="" style="html=1;points=[];perimeter=orthogonalPerimeter;outlineConnect=0;targetShapes=umlLifeline;portConstraint=eastwest;newEdgeStyle={&quot;edgeStyle&quot;:&quot;elbowEdgeStyle&quot;,&quot;elbow&quot;:&quot;vertical&quot;,&quot;curved&quot;:0,&quot;rounded&quot;:0};" vertex="1" parent="7U5aSdqG4vJostI92yb3-29">
          <mxGeometry x="46" y="80" width="10" height="170" as="geometry" />
        </mxCell>
        <mxCell id="7U5aSdqG4vJostI92yb3-31" value="Microservicio de créditos" style="shape=umlLifeline;perimeter=lifelinePerimeter;whiteSpace=wrap;html=1;container=0;dropTarget=0;collapsible=0;recursiveResize=0;outlineConnect=0;portConstraint=eastwest;newEdgeStyle={&quot;edgeStyle&quot;:&quot;elbowEdgeStyle&quot;,&quot;elbow&quot;:&quot;vertical&quot;,&quot;curved&quot;:0,&quot;rounded&quot;:0};" vertex="1" parent="1">
          <mxGeometry x="592" y="50" width="100" height="300" as="geometry" />
        </mxCell>
        <mxCell id="7U5aSdqG4vJostI92yb3-32" value="" style="html=1;points=[];perimeter=orthogonalPerimeter;outlineConnect=0;targetShapes=umlLifeline;portConstraint=eastwest;newEdgeStyle={&quot;edgeStyle&quot;:&quot;elbowEdgeStyle&quot;,&quot;elbow&quot;:&quot;vertical&quot;,&quot;curved&quot;:0,&quot;rounded&quot;:0};" vertex="1" parent="7U5aSdqG4vJostI92yb3-31">
          <mxGeometry x="45" y="80" width="10" height="170" as="geometry" />
        </mxCell>
        <mxCell id="7U5aSdqG4vJostI92yb3-34" value="Cliente con productos" style="html=1;verticalAlign=bottom;endArrow=open;dashed=1;endSize=8;edgeStyle=elbowEdgeStyle;elbow=vertical;curved=0;rounded=0;" edge="1" parent="1">
          <mxGeometry relative="1" as="geometry">
            <mxPoint x="285" y="169" as="targetPoint" />
            <Array as="points">
              <mxPoint x="380" y="169" />
            </Array>
            <mxPoint x="455" y="169" as="sourcePoint" />
          </mxGeometry>
        </mxCell>
        <mxCell id="7U5aSdqG4vJostI92yb3-36" value="Obtener Cliente" style="html=1;verticalAlign=bottom;endArrow=baseDash;edgeStyle=elbowEdgeStyle;elbow=vertical;curved=0;rounded=0;strokeWidth=1;endFill=0;dashed=1;" edge="1" parent="1">
          <mxGeometry relative="1" as="geometry">
            <mxPoint x="286" y="143" as="sourcePoint" />
            <Array as="points">
              <mxPoint x="371" y="143" />
            </Array>
            <mxPoint x="456" y="143" as="targetPoint" />
          </mxGeometry>
        </mxCell>
        <mxCell id="7U5aSdqG4vJostI92yb3-38" value="Saldo Cuenta" style="html=1;verticalAlign=bottom;endArrow=open;dashed=1;endSize=8;edgeStyle=elbowEdgeStyle;elbow=vertical;curved=0;rounded=0;" edge="1" parent="1">
          <mxGeometry relative="1" as="geometry">
            <mxPoint x="466" y="207" as="targetPoint" />
            <Array as="points">
              <mxPoint x="561" y="207" />
            </Array>
            <mxPoint x="636" y="207" as="sourcePoint" />
          </mxGeometry>
        </mxCell>
        <mxCell id="7U5aSdqG4vJostI92yb3-41" value="GET / cuentas / {id}" style="html=1;verticalAlign=bottom;endArrow=open;edgeStyle=elbowEdgeStyle;elbow=vertical;curved=0;rounded=0;strokeWidth=1;endFill=0;dashed=1;" edge="1" parent="1">
          <mxGeometry relative="1" as="geometry">
            <mxPoint x="466" y="184" as="sourcePoint" />
            <Array as="points">
              <mxPoint x="551" y="184" />
            </Array>
            <mxPoint x="636" y="184" as="targetPoint" />
          </mxGeometry>
        </mxCell>
        <mxCell id="7U5aSdqG4vJostI92yb3-42" value="GET / creditos / {id}" style="html=1;verticalAlign=bottom;endArrow=open;edgeStyle=elbowEdgeStyle;elbow=vertical;curved=0;rounded=0;strokeWidth=1;endFill=0;dashed=1;" edge="1" parent="1">
          <mxGeometry relative="1" as="geometry">
            <mxPoint x="467" y="241" as="sourcePoint" />
            <Array as="points">
              <mxPoint x="552" y="241" />
            </Array>
            <mxPoint x="637" y="241" as="targetPoint" />
          </mxGeometry>
        </mxCell>
        <mxCell id="7U5aSdqG4vJostI92yb3-43" value="Saldo Crédito" style="html=1;verticalAlign=bottom;endArrow=open;dashed=1;endSize=8;edgeStyle=elbowEdgeStyle;elbow=vertical;curved=0;rounded=0;" edge="1" parent="1">
          <mxGeometry relative="1" as="geometry">
            <mxPoint x="466" y="263" as="targetPoint" />
            <Array as="points">
              <mxPoint x="561" y="263" />
            </Array>
            <mxPoint x="636" y="263" as="sourcePoint" />
          </mxGeometry>
        </mxCell>
        <mxCell id="7U5aSdqG4vJostI92yb3-44" value="&lt;h3&gt;&lt;strong&gt;Escenario: Consultar los saldos de cuentas y créditos de un cliente&lt;/strong&gt;&lt;/h3&gt;&lt;p&gt;Este escenario cubre la consulta de los saldos de las cuentas bancarias y créditos de un cliente.&lt;/p&gt;&lt;h4&gt;&lt;strong&gt;Microservicios involucrados:&lt;/strong&gt;&lt;/h4&gt;&lt;ul&gt;&lt;li&gt;&lt;strong&gt;Microservicio de Clientes&lt;/strong&gt; (para obtener la información del cliente).&lt;/li&gt;&lt;li&gt;&lt;strong&gt;Microservicio de Cuentas Bancarias&lt;/strong&gt; (para obtener los saldos de las cuentas del cliente).&lt;/li&gt;&lt;li&gt;&lt;strong&gt;Microservicio de Créditos&lt;/strong&gt; (para obtener el saldo de los créditos del cliente).&lt;/li&gt;&lt;/ul&gt;&lt;h4&gt;&lt;strong&gt;Flujo de interacción:&lt;/strong&gt;&lt;/h4&gt;&lt;ol&gt;&lt;li&gt;&lt;strong&gt;Cliente&lt;/strong&gt; (usuario o sistema administrativo) realiza una solicitud &lt;strong&gt;GET&lt;/strong&gt; para obtener los datos del cliente (en el &lt;strong&gt;Microservicio de Clientes&lt;/strong&gt;).&lt;/li&gt;&lt;li&gt;El &lt;strong&gt;Microservicio de Clientes&lt;/strong&gt; obtiene el cliente y su información de productos asociados (cuentas y créditos).&lt;/li&gt;&lt;li&gt;&lt;strong&gt;Microservicio de Cuentas Bancarias&lt;/strong&gt; consulta el saldo de las cuentas del cliente.&lt;/li&gt;&lt;li&gt;&lt;strong&gt;Microservicio de Créditos&lt;/strong&gt; consulta el saldo de los créditos del cliente.&lt;/li&gt;&lt;/ol&gt;" style="text;whiteSpace=wrap;html=1;" vertex="1" parent="1">
          <mxGeometry x="40" y="359" width="560" height="330" as="geometry" />
        </mxCell>
      </root>
    </mxGraphModel>
  </diagram>
</mxfile>
